<svg width="70" height="70" viewBox="0 0 70 70" fill="none" xmlns="http://www.w3.org/2000/svg">
<g clip-path="url(#clip0_8_121)">
<path d="M34.9876 50.3036C35.9878 50.3036 36.8303 49.9653 37.5152 49.2887C38.2001 48.6121 38.5425 47.7737 38.5425 46.7735C38.5425 45.7734 38.2042 44.9308 37.5276 44.2459C36.851 43.5611 36.0126 43.2186 35.0124 43.2186C34.0122 43.2186 33.1697 43.5569 32.4848 44.2336C31.7999 44.9101 31.4575 45.7485 31.4575 46.7487C31.4575 47.7489 31.7958 48.5914 32.4724 49.2763C33.149 49.9612 33.9874 50.3036 34.9876 50.3036ZM31.3158 37.6923H38.8259V20.2632H31.3158V37.6923ZM35 70L24.5142 59.7976H10.2024V45.4858L0 35L10.2024 24.5142V10.2024H24.5142L35 0L45.4858 10.2024H59.7976V24.5142L70 35L59.7976 45.4858V59.7976H45.4858L35 70Z" fill="#F5F5F5"/>
</g>
<defs>
<clipPath id="clip0_8_121">
<rect width="70" height="70" fill="white"/>
</clipPath>
</defs>
</svg>
