<svg width="70" height="70" viewBox="0 0 70 70" fill="none" xmlns="http://www.w3.org/2000/svg">
<g clip-path="url(#clip0_8_126)">
<path d="M34.0504 61.5213L30.2519 57.7229L44.0891 43.8857L41.5795 41.376L27.9457 55.0097L24.0795 51.1434L37.7132 37.5097L35.2035 35L21.5698 48.6337L17.7035 44.7674L31.3372 31.0659L28.8275 28.5562L15.1938 42.1899L11.3953 38.3915L29.1667 20.5523L39.9515 31.3372L49.7868 21.5019L36.3566 8.07171L44.4283 0L70 25.5717L34.0504 61.5213ZM10.1744 35.6783L0 25.5039L24.9612 0.474806L45.9205 21.4341L40.0872 27.3353L29.2345 16.5504L10.1744 35.6783Z" fill="#F5F5F5"/>
</g>
<defs>
<clipPath id="clip0_8_126">
<rect width="70" height="70" fill="white"/>
</clipPath>
</defs>
</svg>
