<svg width="70" height="70" viewBox="0 0 70 70" fill="none" xmlns="http://www.w3.org/2000/svg">
<g clip-path="url(#clip0_8_108)">
<path d="M36.1493 57.894C30.5442 57.7328 25.8096 55.6382 21.9455 51.6102C18.0814 47.5821 16.1493 42.7368 16.1493 37.0742C16.1493 31.2366 18.1669 26.2838 22.2021 22.216C26.2373 18.1482 31.1646 16.1143 36.9839 16.1143C42.6287 16.1143 47.4601 18.0635 51.4782 21.9618C55.4962 25.8601 57.6465 30.6341 57.929 36.2838L51.4036 34.2499C50.7821 30.8601 49.1383 28.0211 46.4723 25.733C43.8062 23.4448 40.654 22.3008 37.0154 22.3008C32.8992 22.3008 29.4235 23.7371 26.5884 26.6098C23.7533 29.4825 22.3358 32.972 22.3358 37.0781C22.3358 40.6164 23.4516 43.7414 25.6832 46.4533C27.9149 49.1652 30.7538 50.8036 34.2002 51.3686L36.1493 57.894ZM40.2171 71.2838C39.7086 71.3403 39.1719 71.3827 38.6069 71.4109C38.042 71.4392 37.5053 71.4533 36.9968 71.4533C32.2764 71.4533 27.8186 70.5623 23.6232 68.7802C19.4278 66.998 15.7659 64.5451 12.6375 61.4214C9.50898 58.2978 7.05228 54.6451 5.26737 50.4636C3.48245 46.282 2.59 41.814 2.59 37.0595C2.59 32.3051 3.47983 27.8375 5.25949 23.6567C7.03915 19.4759 9.49432 15.8207 12.625 12.691C15.7557 9.56141 19.4167 7.08966 23.6078 5.27576C27.7989 3.46192 32.2505 2.555 36.9625 2.555C41.7141 2.555 46.193 3.46251 50.3992 5.27754C54.6055 7.09263 58.2644 9.5559 61.3759 12.6674C64.4874 15.7789 66.9507 19.4378 68.7658 23.6441C70.5808 27.8503 71.4883 32.3104 71.4883 37.0242C71.4883 37.5753 71.4601 38.1264 71.4036 38.6775C71.3471 39.2286 71.3188 39.7584 71.3188 40.2669L65.3019 38.4025V37.0465C65.3019 29.1973 62.5463 22.5175 57.0351 17.007C51.5238 11.4966 44.843 8.74144 36.9927 8.74144C29.1423 8.74144 22.477 11.497 16.9968 17.0082C11.5166 22.5195 8.77644 29.2003 8.77644 37.0506C8.77644 44.901 11.5234 51.5663 17.0175 57.0465C22.5114 62.5268 29.1712 65.2669 36.9968 65.2669H38.3527L40.2171 71.2838ZM65.8951 72.6397L51.4036 58.1482L47.1663 70.9448L36.9968 37.0465L70.8951 47.216L58.0985 51.4533L72.59 65.9448L65.8951 72.6397Z" fill="#F5F5F5"/>
</g>
<defs>
<clipPath id="clip0_8_108">
<rect width="70" height="70" fill="white"/>
</clipPath>
</defs>
</svg>
