<svg width="70" height="70" viewBox="0 0 70 70" fill="none" xmlns="http://www.w3.org/2000/svg">
<g clip-path="url(#clip0_8_116)">
<path d="M8.58796 67.7315C6.22627 67.7315 4.20454 66.8906 2.52275 65.2088C0.840918 63.527 0 61.5052 0 59.1435V23.6574C0 21.2957 0.840918 19.274 2.52275 17.5922C4.20454 15.9104 6.22627 15.0694 8.58796 15.0694H19.7685V8.58796C19.7685 6.22627 20.6094 4.20454 22.2913 2.52275C23.9731 0.840918 25.9948 0 28.3565 0H41.6435C44.0052 0 46.0269 0.840918 47.7087 2.52275C49.3906 4.20454 50.2315 6.22627 50.2315 8.58796V15.0694H61.412C63.7737 15.0694 65.7955 15.9104 67.4772 17.5922C69.1591 19.274 70 21.2957 70 23.6574V59.1435C70 61.5052 69.1591 63.527 67.4772 65.2088C65.7955 66.8906 63.7737 67.7315 61.412 67.7315H8.58796ZM28.3565 15.0694H41.6435V8.58796H28.3565V15.0694Z" fill="#F5F5F5"/>
</g>
<defs>
<clipPath id="clip0_8_116">
<rect width="70" height="70" fill="white"/>
</clipPath>
</defs>
</svg>
